inDegrees=no
num_controls=7
num_derivatives=13
num_iterations=131
num_multipliers=7
num_parameters=0
num_slacks=7
num_states=26
objective=0.480692
objective_accelerations=0.028448
objective_balance=0.000527
objective_effort=0.009216
objective_height=0.433261
objective_ligament=0.009240
solver_duration=2002.815149
status=Solve_Succeeded
success=true
DataType=double
version=3
OpenSimVersion=4.5
endheader
time	/jointset/ground_pelvis/pelvis_tilt/value	/jointset/ground_pelvis/pelvis_tx/value	/jointset/ground_pelvis/pelvis_ty/value	/jointset/hip_l/hip_flexion_l/value	/jointset/hip_l/hip_adduction_l/value	/jointset/hip_l/hip_rotation_l/value	/jointset/back/lumbar_extension/value	/jointset/patellofemoral_l/patellar_flexion_l/value	/jointset/knee_l/knee_flexion_l/value	/jointset/knee_l/knee_adduction_l/value	/jointset/knee_l/knee_rotation_l/value	/jointset/ankle_l/ankle_angle_l/value	/jointset/subtalar_l/subtalar_angle_l/value	/jointset/ground_pelvis/pelvis_tilt/speed	/jointset/ground_pelvis/pelvis_tx/speed	/jointset/ground_pelvis/pelvis_ty/speed	/jointset/hip_l/hip_flexion_l/speed	/jointset/hip_l/hip_adduction_l/speed	/jointset/hip_l/hip_rotation_l/speed	/jointset/back/lumbar_extension/speed	/jointset/patellofemoral_l/patellar_flexion_l/speed	/jointset/knee_l/knee_flexion_l/speed	/jointset/knee_l/knee_adduction_l/speed	/jointset/knee_l/knee_rotation_l/speed	/jointset/ankle_l/ankle_angle_l/speed	/jointset/subtalar_l/subtalar_angle_l/speed	/forceset/tau_hip_flexion_l	/forceset/tau_hip_adduction_l	/forceset/tau_hip_rotation_l	/forceset/tau_knee_flexion_l	/forceset/tau_ankle_angle_l	/forceset/tau_subtalar_angle_l	/forceset/tau_lumbar_extension	lambda_cid13_p0	lambda_cid13_p1	lambda_cid13_p2	lambda_cid13_p3	lambda_cid13_p4	lambda_cid13_p5	lambda_cid14_p0	/jointset/ground_pelvis/pelvis_tilt/accel	/jointset/ground_pelvis/pelvis_tx/accel	/jointset/ground_pelvis/pelvis_ty/accel	/jointset/hip_l/hip_flexion_l/accel	/jointset/hip_l/hip_adduction_l/accel	/jointset/hip_l/hip_rotation_l/accel	/jointset/back/lumbar_extension/accel	/jointset/patellofemoral_l/patellar_flexion_l/accel	/jointset/knee_l/knee_flexion_l/accel	/jointset/knee_l/knee_adduction_l/accel	/jointset/knee_l/knee_rotation_l/accel	/jointset/ankle_l/ankle_angle_l/accel	/jointset/subtalar_l/subtalar_angle_l/accel	gamma_cid13_p0	gamma_cid13_p1	gamma_cid13_p2	gamma_cid13_p3	gamma_cid13_p4	gamma_cid13_p5	gamma_cid14_p0
1.5	-0.1174930382198829	0.1243421949910952	0.8618956403879081	0.4898290391046187	-0.3462001385891744	-0.1584953986187903	-0.2707128632276272	0.538308495778393	0.5383084957783735	-0.04051092633064698	-0.1694328727902168	0.2678756153961866	0.1693754269390534	-0.07182813324214687	0.1091753456827781	0.1884703919559688	-0.9196566176919198	0.1038204029822615	-0.4174117749795026	0.6003925226505392	-1.453305498990179	-1.453305498990171	-0.09842504898783901	0.04578269286333997	-0.5516341319025182	-0.09265669696664779	-0.03853405601876429	0.02921598815521449	0.002684041737759133	-0.1312664765753851	-0.05442605549455805	0.003989164845260176	0.06637580490870547	-42.42589667491894	2.19372045245978	3.369665285767443	3.526368856181985	-446.7242532409272	-64.61089429432946	-20.84160195613467	0.07125851476078152	0.06583335465625297	-0.3389597469262904	-0.3661625047019141	0.1921573329953748	0.01067712038348259	0.5953676068087209	-0.6461996488904583	-0.6461996488904568	-0.2087355928821562	0.2651801636280767	-0.3304527215448151	0.1827854108048901	-1.733865911823477e-07	1.016271080766043e-06	4.38782606668444e-07	1.705257989924956e-07	-1.556006744289921e-07	1.807842245064912e-07	-2.448062499127759e-09
1.51	-0.1182081180476113	0.1254370652222537	0.8637629635320812	0.4806161164407716	-0.3451522904158222	-0.1626705613783557	-0.2646796351584345	0.5237453952024466	0.523745395202437	-0.04150422520551181	-0.1689636014384703	0.2623436332609711	0.1684583900581196	-0.07118727586913258	0.1097819905315423	0.1849590708545669	-0.9227933840629871	0.1057373904285667	-0.4175699967436666	0.606164529765592	-1.459117652715971	-1.459117652715963	-0.1002239034845586	0.04806636098112441	-0.5546871167129838	-0.09074108344058489	-0.03703744956164713	0.02829250789425612	0.002805132645278955	-0.1285567607474393	-0.05354693009873717	0.003085778778938083	0.06472250172682839	-42.14972353351595	2.46087989741734	3.414825559495752	3.461068596320658	-445.6405432258136	-64.32904463781088	-21.26175831025669	0.06056203936325774	0.05560567159309335	-0.3625271504808209	-0.2672797694486813	0.1894972494132494	-0.02147502548613571	0.5548330504960242	-0.5191755337662775	-0.5191755337662353	-0.1636513341581873	0.2092777746854537	-0.2814336440219961	0.1971796683647995	-1.785116110296159e-07	9.714152668143968e-07	4.990029668355159e-07	1.639886858686931e-07	-1.649561277287276e-07	1.026831253312116e-07	-1.132032822077906e-08
1.52	-0.1189167767634513	0.1265375070262212	0.8655941116934937	0.4713758568999856	-0.344085666808214	-0.1668457869956965	-0.258591343860763	0.5091300826293731	0.5091300826293743	-0.04251515081656126	-0.1684716298777804	0.256783378821006	0.1675607553814179	-0.07054391086445813	0.1102896602445701	0.1812353954038177	-0.9251239930796363	0.1075754898334781	-0.4174243465346226	0.6114051683463441	-1.463747898415469	-1.46374789841546	-0.1019503962249313	0.05032273465218198	-0.5572885928524316	-0.08877625612020959	-0.03554084310453353	0.02736902763329841	0.002926223552804302	-0.1258470449194942	-0.05266780470291613	0.00218239271261687	0.06306919854494795	-41.879470159794	2.729747532921612	3.458946414153151	3.403597915730933	-444.6586080016361	-64.05700593207362	-21.66048034064662	0.07176004109281574	0.04603832750897731	-0.3814306167957537	-0.2049310338183134	0.176379724716612	0.0714515150250762	0.4890938999486124	-0.4098180436314549	-0.4098180436314579	-0.1942632416127752	0.2597212742827004	-0.2401509873412411	0.1926281696673678	-1.769872331272428e-07	9.152129013560419e-07	5.256605467494647e-07	1.542140668130518e-07	-1.63528450797573e-07	4.458549827674357e-08	-1.701742270681218e-08
1.53	-0.119618928166292	0.127642534708128	0.8673870161845109	0.4621162344732356	-0.3430010392416126	-0.171017864703767	-0.2524534330966414	0.4944743782997552	0.4944743782997518	-0.04354302415506542	-0.1679570696443634	0.251199400492453	0.1666830393204707	-0.06988679127278905	0.1106993366188057	0.1773141293171522	-0.9266626189619867	0.1093368775028498	-0.4169438968440311	0.6160835096110693	-1.467188569027638	-1.467188569027642	-0.1036078914301309	0.05257937966392163	-0.5594266347529641	-0.08675735039669742	-0.03396943604904278	0.02628245881894914	0.003006128173733529	-0.1232184615191189	-0.0516629632197057	0.001388986600869031	0.0613711593635924	-41.55895325770342	2.940415215257429	3.514213212035416	3.296420723970975	-443.6870029507663	-63.92306791785695	-22.03811100856542	0.06260467021988134	0.03597814971812057	-0.4022093761320327	-0.1076715384961277	0.1738657916468773	0.043409996866491	0.4431830097011022	-0.280527680976204	-0.2805276809781066	-0.148869233100806	0.207239105440379	-0.1885568633410281	0.207777092192146	-1.68397870115876e-07	8.469548249218089e-07	5.166576726444705e-07	1.409995977048318e-07	-1.506436979960978e-07	7.741560350637484e-09	-1.934089775500102e-08
1.54	-0.1203145250228128	0.1287511683252446	0.8691397610603553	0.4528453571530512	-0.3418992282975977	-0.1751837242547734	-0.2462715431658793	0.4797904000418218	0.4797904000418143	-0.04458694776024667	-0.1674202223626653	0.2455964565305081	0.1658257633804584	-0.06923300160048297	0.1110108472865317	0.1732034723692836	-0.9273749717664461	0.1110121653161986	-0.4161807151218272	0.6202010016744597	-1.469402684078468	-1.469402684078485	-0.1051604495604205	0.05478014430849263	-0.5610817195307678	-0.08468823193322514	-0.03239802899355574	0.02519589000460042	0.003086032794665842	-0.1205898781187445	-0.05065812173649516	0.0005955804891218556	0.0596731201822334	-41.24348927005215	3.153838289837894	3.566904134759752	3.19704773790051	-442.7977688738688	-63.79295281401066	-22.39395372277639	0.07109405722021268	0.0264051862070397	-0.4193087890363505	-0.03967641824010589	0.1591597535120562	0.1279979213475615	0.3769240596816761	-0.164506931363511	-0.1645069313635107	-0.1732758266307873	0.2485452008489728	-0.1435595627954995	0.2026707176593851	-1.563584441604888e-07	7.788144753827561e-07	4.815938913576793e-07	1.279210440564891e-07	-1.344474593590138e-07	-8.026496782250489e-09	-1.857418345434422e-08
1.55	-0.1210035348878144	0.1298624143645722	0.8708505079736438	0.4435713991676908	-0.3407811468264602	-0.1793401648096518	-0.2400513963062622	0.4650903972228371	0.4650903972228281	-0.04564612686170808	-0.1668613739153292	0.239979361144561	0.1649893430591021	-0.06856866865945636	0.111220332616771	0.1689188363074459	-0.9272752917640805	0.112589743179189	-0.415059868057453	0.6237297606255051	-1.470386684709915	-1.470386684709914	-0.1066545896802653	0.05697804027491755	-0.5622541890553544	-0.08258703041623862	-0.03081133767584133	0.0242955428462336	0.003131371256084062	-0.1179459698867319	-0.04960013838991027	-0.0003235867483490597	0.05796992761222977	-40.92461991052527	3.432172358912921	3.596808189463145	3.099061619371003	-441.9482645912234	-63.53216126367585	-22.727555530021	0.0641317511326215	0.01553757614093277	-0.4371227755507303	0.05597051857156271	0.1547542443068042	0.1112394924289894	0.3260603692994633	-0.0336650091298703	-0.03366500912710771	-0.134228721733654	0.2037534885889282	-0.09160833682251657	0.2150163754378678	-1.403439456826435e-07	7.108097677011936e-07	4.16503412665776e-07	1.149990886553964e-07	-1.144358131287287e-07	4.885261292201847e-10	-1.424703359958288e-08
1.56	-0.1216858956556879	0.1309752187311439	0.8725175921741554	0.4343026740441732	-0.3396477500883699	-0.1834839746151971	-0.2337989201458381	0.4503868907215184	0.4503868907215092	-0.04671959648778151	-0.1662808781695198	0.2343530375254615	0.1641741690542595	-0.06790318217488027	0.1113225127353525	0.1644709298138778	-0.9263283993978477	0.1140752187067505	-0.413654565255213	0.62666686183589	-1.470103420545143	-1.470103420545123	-0.1080185544830033	0.05910960400332965	-0.5629273661612321	-0.08043896863046886	-0.02922464635812938	0.02339519568786673	0.003176709717508536	-0.1153020616547201	-0.0485421550433255	-0.001242753985820154	0.05626673504222402	-40.60987608082839	3.712887059373454	3.624438797200658	3.006854068270209	-441.1675817218357	-63.27577227083432	-23.03870500968601	0.07132476593010835	0.004944143875473071	-0.4519628753824396	0.1297660545333686	0.1407392864262665	0.184889068920727	0.2585925115495772	0.0889460278804748	0.08894602788047473	-0.1472407632094218	0.2352787532464094	-0.04370107905372784	0.2120427714160306	-1.222581248690854e-07	6.665241312455385e-07	3.222719780204225e-07	1.047307367765114e-07	-8.711369820321399e-08	4.539675423499485e-08	-5.540031334189699e-09
1.57	-0.1223615014678537	0.132088513073289	0.8741394439769954	0.4250474574268093	-0.3385000948359999	-0.1876119047455203	-0.227520178144013	0.4356924654515512	0.4356924654515447	-0.04780649176612608	-0.1656791499603598	0.2287224312229929	0.1633805078234241	-0.06721949509033666	0.1113180013266621	0.1598766567887859	-0.9245681169030772	0.1154412237560669	-0.4118843664432404	0.628979996911086	-1.468562763455957	-1.468562763455942	-0.1093324221369028	0.06122335344922635	-0.563106073161623	-0.07828298146834407	-0.02759041036908976	0.02230694475393143	0.003194595028434533	-0.1127352715510064	-0.04742910181688866	-0.002016174347498006	0.05454106635881794	-40.26812786060425	3.922021788370265	3.667540237670144	2.884535925991423	-440.4509101289495	-63.19085011074615	-23.32744014639765	0.06665151576951686	-0.005883182874351894	-0.4665815431242203	0.2211666998029813	0.132242399463979	0.18016288157851	0.2024427628015021	0.2194526868731264	0.2194526868723232	-0.1191360652027114	0.1975418746949899	0.008227717104927187	0.2188078874137801	-1.015831511358863e-07	6.518873338222676e-07	1.916143484332564e-07	9.777938930038627e-08	-5.065349740866245e-08	1.357964888336491e-07	8.641786444493225e-09
1.58	-0.1230303182419634	0.1332012154214206	0.8757146686441741	0.4158142451049637	-0.3373392372760807	-0.1917207173688752	-0.2212213510399767	0.421020012179963	0.4210200121799589	-0.04890566098075435	-0.1650566604898539	0.2230926744960476	0.1626086927039705	-0.066545374563672	0.1112041139326498	0.1551455026816271	-0.9219275402941434	0.1167156802165691	-0.4098310638615484	0.6306838822781579	-1.465709020869352	-1.465709020869343	-0.1104733417397022	0.06326185627247059	-0.562757451056546	-0.07606974635409619	-0.02595617438005214	0.02121869381999663	0.003212480339359173	-0.1101684814472931	-0.04631604859045176	-0.002789594709175263	0.05281539767541	-39.92947604425333	4.133552477987802	3.708142564240794	2.764395520448595	-439.7843984575415	-63.11305359537725	-23.59403330335886	0.06941145435431402	-0.01693105318888793	-0.479339091795826	0.3058248773660202	0.1224295686634228	0.2415098228646055	0.1367425699247821	0.3515631273642557	0.3515631273642564	-0.1126511529894275	0.2202294287159148	0.06176474203987036	0.2234923618406499	-8.132695435930033e-08	6.657602700743883e-07	4.369851468503188e-08	9.455256024094476e-08	-9.652351375694597e-09	2.556911156829572e-07	2.609350514283267e-08
